<svg width="139" height="163" viewBox="0 0 139 163" fill="none" xmlns="http://www.w3.org/2000/svg">
<path d="M5 26.7893L25.2329 12.4832C29.3832 14.4787 39.5515 18.4697 47.0222 18.4697C54.4928 18.4697 65.6987 9.48991 70.3678 5C76.5933 9.48991 86.2428 18.4697 93.7134 18.4697C101.184 18.4697 112.909 14.4787 115.503 12.4832L134.179 26.7893C130.548 29.2837 124.841 54.389 124.841 60.3755C124.841 67.8587 134.179 87.315 134.179 99.2881C134.179 117.248 121.728 132.214 107.721 139.697C93.7134 147.18 79.0835 153.167 70.3678 157.525C61.6521 153.167 50.1349 145.684 37.6839 139.697C22.1201 132.214 8.11275 114.254 8.11275 99.2881C8.11275 84.3217 14.3383 67.8587 14.3383 60.3755C14.3383 54.389 8.11275 29.2837 5 26.7893Z" fill="#F45D22" stroke="#F45D22" stroke-width="9.13074" stroke-linejoin="round"/>
<path d="M42.0194 93.4723L66.0087 111.33L101.462 60.744" stroke="white" stroke-width="9.13074" stroke-linecap="round" stroke-linejoin="round"/>
</svg>
